<?xml version="1.0" encoding="iso-8859-1"?>
<!-- Generator: Adobe Illustrator 19.0.0, SVG Export Plug-In . SVG Version: 6.00 Build 0)  -->
<svg version="1.1" id="Layer_1" xmlns="http://www.w3.org/2000/svg" xmlns:xlink="http://www.w3.org/1999/xlink" x="0px" y="0px"
	 viewBox="0 0 512 512" style="enable-background:new 0 0 512 512;" xml:space="preserve">
<path style="fill:#DBA983;" d="M389.333,260.144c17.453,5.164,30.198,21.341,30.198,40.458c0,19.186-12.813,35.374-30.346,40.504
	c0.091-2.132,0.148-4.286,0.148-6.452v-34.04V260.144z"/>
<path style="fill:#FFD3AE;" d="M389.897,341.105c-2.063,43.251-24.635,81.121-58.185,104.092c-0.296,0.217-0.593,0.41-0.878,0.604
	c-12.665,8.527-26.869,14.945-42.1,18.73c-0.319-7.889-64.842-7.889-65.162,0c-15.23-3.785-29.446-10.203-42.1-18.73
	c-0.285-0.194-0.593-0.388-0.878-0.604c-33.55-22.971-56.121-60.841-58.185-104.092c-0.091-2.132-0.148-4.286-0.148-6.452v-34.04
	c22.777-10.682,17.465-87.38,17.465-87.38c65.572,3.443,177.253,3.443,242.813,0c0,0-15.284,76.698,7.505,87.38v34.04
	C390.045,336.819,389.988,338.974,389.897,341.105z"/>
<path style="fill:#DBA983;" d="M123.035,210.852c-0.398,4.203-0.61,8.46-0.61,12.767c0,0-0.365,17.706,0,17.732v18.874
	c-17.322,5.246-29.944,21.353-29.944,40.377c0,19.08,12.674,35.202,30.058,40.414c0.013,0.342,0.019,0.684,0.034,1.026
	c2.063,43.24,24.635,81.11,58.185,104.092c0.285,0.205,0.593,0.41,0.878,0.604c21.329,14.352,47.024,22.743,74.68,22.743
	c9.783,0,19.314-1.069,28.498-3.062c-16.782-3.64-32.396-10.406-46.18-19.681c-0.285-0.194-0.593-0.399-0.878-0.604
	c-33.55-22.982-56.121-60.852-58.185-104.092c-0.091-2.143-0.148-4.298-0.148-6.464v-34.04V261.08
	c0-9.05,7.384-16.358,16.433-16.252c34.115,0.397,113.151,0.984,157.779-1.359c11.833-0.616,23.655-1.345,35.476-2.189v-1.778
	l0.251-0.068c-2.632-8.886-4.901-17.778-6.823-26.668C304.524,220.231,171.289,213.652,123.035,210.852z"/>
<g>
	<path style="fill:#4D4D4D;" d="M223.425,464.531c0.319-7.889,3.488-15.686,9.519-21.717c6.372-6.372,14.717-9.553,23.062-9.553
		c8.345,0,16.689,3.181,23.062,9.553c6.03,6.031,9.2,13.828,9.519,21.717c0.023,0.445,0.034,0.901,0.034,1.345
		c0,8.345-3.181,16.689-9.553,23.062L256.006,512l-23.062-23.062C226.23,482.224,223.06,473.321,223.425,464.531z"/>
	<path style="fill:#4D4D4D;" d="M389.897,260.144v40.469c-22.788-10.682-35.476-87.38-35.476-87.38
		c11.833-0.616,23.655-1.345,35.476-2.189V260.144z"/>
</g>
<path style="fill:#666666;" d="M390.171,10.909C317.12-1.038,244.082-3.17,171.032,4.502c-15.914,1.664-31.84,3.808-47.754,6.407
	c15.47,52.28,18.719,104.548,9.724,156.828c-2.383,13.839-5.62,27.69-9.724,41.53h-1.163v1.778
	c11.822,0.844,23.643,1.573,35.476,2.189c4.093,0.217,8.196,0.422,12.3,0.604c61.479,2.827,123.061,2.622,184.529-0.604
	c11.833-0.616,23.655-1.345,35.476-2.189v-1.778l0.251-0.068c-4.093-13.817-7.319-27.645-9.701-41.461
	C371.452,115.457,374.701,63.189,390.171,10.909z"/>
<path style="fill:#F95428;" d="M390.148,209.198l-0.251,0.068v1.778c-11.822,0.844-23.643,1.573-35.476,2.189
	c-61.468,3.226-123.05,3.431-184.529,0.604c-4.104-0.182-8.208-0.388-12.3-0.604c-11.833-0.616-23.655-1.345-35.476-2.189v-1.778
	h1.163c4.104-13.839,7.342-27.69,9.724-41.53c15.31,2.326,30.62,4.218,45.919,5.677c67.168,6.395,134.359,4.503,201.526-5.677
	C382.829,181.553,386.055,195.381,390.148,209.198z"/>
<path style="fill:#4D4D4D;" d="M157.591,213.233c0,0-12.699,76.698-35.476,87.38v-40.469v-49.099
	C133.936,211.888,145.758,212.618,157.591,213.233z"/>
<g>
	<path style="fill:#DBA983;" d="M225.511,360.086c-3.777,0-6.84-3.062-6.84-6.84v-58.128c0-11.786-9.588-21.375-21.375-21.375
		c-11.786,0-21.375,9.588-21.375,21.375c0,3.778-3.063,6.84-6.84,6.84c-3.777,0-6.84-3.062-6.84-6.84
		c0-19.33,15.725-35.055,35.055-35.055s35.055,15.725,35.055,35.055v58.128C232.351,357.024,229.288,360.086,225.511,360.086z"/>
	<path style="fill:#DBA983;" d="M286.501,360.086c-3.777,0-6.84-3.062-6.84-6.84v-58.128c0-19.33,15.72-35.055,35.043-35.055
		c19.33,0,35.055,15.725,35.055,35.055c0,3.778-3.063,6.84-6.84,6.84s-6.84-3.062-6.84-6.84c0-11.786-9.588-21.375-21.375-21.375
		c-11.779,0-21.363,9.588-21.363,21.375v58.128C293.34,357.024,290.277,360.086,286.501,360.086z"/>
</g>
<g>
	<path style="fill:#4D4D4D;" d="M196.727,326.502c-4.722,0-8.55-3.828-8.55-8.55v-16.427c0-4.722,3.828-8.55,8.55-8.55
		c4.722,0,8.55,3.828,8.55,8.55v16.427C205.277,322.675,201.449,326.502,196.727,326.502z"/>
	<path style="fill:#4D4D4D;" d="M315.285,326.502c-4.722,0-8.55-3.828-8.55-8.55v-16.427c0-4.722,3.828-8.55,8.55-8.55
		c4.722,0,8.55,3.828,8.55,8.55v16.427C323.835,322.675,320.007,326.502,315.285,326.502z"/>
	<path style="fill:#4D4D4D;" d="M171.032,4.502c-15.914,1.664-31.84,3.808-47.754,6.407c15.47,52.28,18.719,104.548,9.724,156.828
		c-2.383,13.839-5.62,27.69-9.724,41.53h-1.163v1.778c11.822,0.844,23.643,1.573,35.476,2.189c4.093,0.217,8.196,0.422,12.3,0.604
		c4.138-12.734,7.068-26.379,9.029-40.424C188.086,108.195,176.674,34.507,171.032,4.502z"/>
</g>
<path style="fill:#E54728;" d="M178.92,173.414c-1.961,14.045-4.891,27.69-9.029,40.424c-4.104-0.182-8.208-0.388-12.3-0.604
	c-11.833-0.616-23.655-1.345-35.476-2.189v-1.778h1.163c4.104-13.839,7.342-27.69,9.724-41.53
	C148.312,170.062,163.622,171.954,178.92,173.414z"/>
<path style="fill:#4D4D4D;" d="M355.804,364.977c-6.543,3.272-13.634,4.891-20.691,4.891c-9.314,0-18.57-2.804-26.47-8.322
	c-7.057-4.925-15.116-7.786-23.324-8.55c-3.819-0.376-7.661-0.285-11.468,0.251c-7.829,1.103-14.132,6.333-17.127,13.257
	c-2.997-6.924-9.305-12.153-17.125-13.257c-3.808-0.536-7.661-0.627-11.468-0.251c-8.219,0.764-16.268,3.625-23.324,8.55
	c-7.911,5.518-17.168,8.322-26.47,8.322c-7.068,0-14.147-1.619-20.691-4.891l-2.759-1.368l8.607,19.665
	c12.107,27.679,46.397,37.528,71.352,20.497c0,0,20.202-15.278,21.88-19.12c1.678,3.842,21.868,19.12,21.868,19.12
	c24.954,17.031,59.256,7.182,71.363-20.497l8.607-19.665L355.804,364.977z"/>
<path style="fill:#666666;" d="M475.077,211.626c-27.93,3.26-56.384,5.939-84.575,7.946c-11.822,0.844-23.814,1.585-35.636,2.2
	c-32.797,1.721-65.823,2.588-98.859,2.588c-33.025,0-66.051-0.866-98.859-2.588c-4.537-0.239-9.108-0.49-13.68-0.775
	c-7.33-0.422-14.672-0.901-21.956-1.425c-28.192-2.006-56.657-4.685-84.587-7.946c-4.685-0.547-8.048-4.799-7.501-9.485
	s4.799-8.048,9.485-7.501c27.679,3.238,55.882,5.882,83.812,7.877c7.832,0.559,15.743,1.072,23.62,1.528
	c3.91,0.239,7.809,0.445,11.696,0.65c65.013,3.409,130.939,3.409,195.94,0c11.719-0.604,23.598-1.345,35.317-2.177
	c27.93-1.995,56.121-4.64,83.8-7.877c4.697-0.547,8.937,2.816,9.485,7.501S479.762,211.079,475.077,211.626z"/>
<path style="fill:#4D4D4D;" d="M143.467,220.997c-7.33-0.422-14.672-0.901-21.956-1.425c-28.192-2.006-56.657-4.685-84.587-7.946
	c-4.685-0.547-8.048-4.799-7.501-9.485c0.547-4.685,4.799-8.048,9.485-7.501c27.679,3.238,55.882,5.882,83.812,7.877
	c7.832,0.559,15.743,1.072,23.62,1.528C144.002,208.149,141.973,214.054,143.467,220.997z"/>
<g>
</g>
<g>
</g>
<g>
</g>
<g>
</g>
<g>
</g>
<g>
</g>
<g>
</g>
<g>
</g>
<g>
</g>
<g>
</g>
<g>
</g>
<g>
</g>
<g>
</g>
<g>
</g>
<g>
</g>
</svg>
